<svg aria-hidden="true" style="position: absolute; width: 0; height: 0; overflow: hidden;" version="1.1" xmlns="http://www.w3.org/2000/svg" xmlns:xlink="http://www.w3.org/1999/xlink">
<defs>
<symbol id="icon-spa" viewBox="0 0 24 24">
<path fill="#71717a" style="fill: var(--color1, #71717a)" d="M11.616 13.322c0.396-0.042 0.682-0.396 0.64-0.792s-0.396-0.682-0.792-0.64l0.151 1.432zM3.314 5.13l0.72 0.021c0-0.005 0-0.011 0-0.016l-0.72-0.005zM4.033 4.416l-0 0.72 0.008-0-0.008-0.72zM8.199 6.354c0.332 0.218 0.779 0.126 0.997-0.207s0.126-0.779-0.207-0.997l-0.79 1.204zM4.033 3.696c-0.38 0-0.745 0.15-1.014 0.418l1.014 1.022 0-1.44zM3.019 4.114c-0.27 0.268-0.422 0.631-0.425 1.011l1.44 0.010-1.015-1.022zM2.595 5.109c-0.145 4.97 4.245 8.718 9.022 8.213l-0.151-1.432c-3.963 0.419-7.549-2.694-7.431-6.738l-1.439-0.042zM8.99 5.151c-1.472-0.967-3.2-1.474-4.964-1.455l0.016 1.44c1.477-0.016 2.925 0.408 4.158 1.218l0.791-1.204z"></path>
<path fill="#71717a" style="fill: var(--color1, #71717a)" d="M13.939 5.242c-0.329 0.224-0.414 0.671-0.19 1s0.671 0.414 1 0.19l-0.81-1.191zM19.010 4.416l-0.004 0.72h0.003l0.001-0.72zM19.727 5.13l-0.72 0.004c0 0.006 0 0.011 0 0.017l0.72-0.020zM17.65 10.567l0.49 0.528c0.011-0.010 0.022-0.021 0.033-0.032l-0.523-0.495zM14.816 12.247v0zM11.724 11.897c-0.396-0.036-0.746 0.257-0.782 0.653s0.257 0.746 0.653 0.782l0.129-1.434zM14.749 6.433c1.255-0.853 2.739-1.306 4.257-1.297l0.008-1.44c-1.809-0.010-3.579 0.529-5.075 1.546l0.81 1.191zM19.009 5.136c-0 0-0.001-0-0.001-0.001l1.016-1.020c-0.269-0.268-0.633-0.419-1.013-0.419l-0.002 1.44zM19.008 5.135c-0-0-0.001-0.001-0.001-0.001l1.44-0.008c-0.002-0.38-0.154-0.743-0.423-1.011l-1.016 1.020zM19.007 5.151c0.026 0.904-0.127 1.803-0.45 2.648l1.345 0.514c0.39-1.021 0.575-2.11 0.544-3.203l-1.439 0.041zM18.558 7.798c-0.323 0.844-0.809 1.617-1.431 2.273l1.045 0.99c0.752-0.794 1.34-1.728 1.73-2.749l-1.345-0.514zM17.16 10.039c-0.738 0.686-1.615 1.206-2.572 1.525l0.455 1.366c1.152-0.384 2.207-1.010 3.096-1.836l-0.98-1.055zM14.588 11.564c-0.922 0.307-1.897 0.421-2.864 0.334l-0.129 1.434c1.164 0.105 2.338-0.032 3.448-0.402l-0.455-1.366z"></path>
<path fill="#71717a" style="fill: var(--color1, #71717a)" d="M19.441 14.562c0.007-0.398-0.31-0.725-0.708-0.732s-0.725 0.311-0.732 0.708l1.44 0.024zM5.042 14.538c-0.006-0.398-0.334-0.715-0.732-0.708s-0.715 0.334-0.708 0.732l1.44-0.023zM18.001 14.538c-0.009 0.573-0.503 1.284-1.728 1.892-1.183 0.587-2.86 0.97-4.751 0.97v1.44c2.065 0 3.971-0.415 5.391-1.12 1.377-0.683 2.505-1.757 2.528-3.158l-1.44-0.024zM11.522 17.4c-1.891 0-3.569-0.382-4.752-0.968-1.225-0.607-1.719-1.318-1.728-1.893l-1.44 0.023c0.023 1.403 1.151 2.477 2.528 3.16 1.42 0.704 3.326 1.118 5.391 1.118v-1.44z"></path>
<path fill="#71717a" style="fill: var(--color1, #71717a)" d="M22.32 14.517h0.72v-0.007l-0.72 0.007zM0.72 14.52l-0.72-0.007v0.007h0.72zM2.215 12.044c0.223-0.329 0.137-0.777-0.192-1s-0.777-0.137-1 0.192l1.192 0.808zM22.032 11.258c-0.222-0.33-0.669-0.418-0.999-0.197s-0.418 0.669-0.197 0.999l1.196-0.803zM21.6 14.517c0 1.673-1.017 3.275-2.843 4.492-1.821 1.214-4.377 1.988-7.237 1.988v1.44c3.105 0 5.948-0.838 8.036-2.23 2.083-1.389 3.484-3.386 3.484-5.69h-1.44zM11.52 20.997c-2.86 0-5.417-0.773-7.237-1.987-1.826-1.216-2.843-2.818-2.843-4.49h-1.44c0 2.304 1.401 4.301 3.484 5.689 2.088 1.391 4.931 2.228 8.036 2.228v-1.44zM1.44 14.527c0.008-0.886 0.278-1.75 0.775-2.483l-1.192-0.808c-0.656 0.968-1.012 2.108-1.022 3.277l1.44 0.013zM20.837 12.061c0.489 0.729 0.755 1.585 0.763 2.464l1.44-0.014c-0.011-1.159-0.362-2.29-1.008-3.252l-1.196 0.803z"></path>
<path fill="#71717a" style="fill: var(--color1, #71717a)" d="M11.541 12.606l-0.453 0.56c0.264 0.214 0.642 0.214 0.906 0l-0.453-0.56zM8.661 6.846l-0.72-0.020c-0 0.015-0 0.031 0 0.046l0.72-0.026zM11.047 1.522l0.494 0.524c0.004-0.003 0.007-0.007 0.010-0.010l-0.504-0.514zM11.541 1.32v0zM12.035 1.522l-0.504 0.514c0.003 0.003 0.007 0.007 0.010 0.010l0.494-0.524zM14.421 6.846l0.72 0.026c0.001-0.015 0.001-0.031 0-0.046l-0.72 0.020zM11.551 2.036c-0.003 0.003-0.006 0.004-0.010 0.004v-1.44c-0.373 0-0.731 0.146-0.998 0.408l1.008 1.028zM11.541 2.040c-0.004 0-0.007-0.001-0.010-0.004l1.008-1.028c-0.266-0.261-0.625-0.408-0.998-0.408v1.44zM9.38 6.865c0.049-1.81 0.842-3.578 2.16-4.82l-0.987-1.048c-1.598 1.504-2.553 3.635-2.613 5.829l1.439 0.039zM11.993 12.046c-1.572-1.272-2.539-3.206-2.613-5.227l-1.439 0.053c0.089 2.437 1.251 4.76 3.147 6.293l0.906-1.12zM13.701 6.819c-0.074 2.021-1.041 3.955-2.613 5.227l0.906 1.12c1.896-1.534 3.057-3.857 3.147-6.293l-1.439-0.053zM11.541 2.046c1.318 1.242 2.11 3.010 2.16 4.82l1.439-0.039c-0.060-2.193-1.015-4.324-2.612-5.829l-0.987 1.048z"></path>
</symbol>
</defs>
</svg>
