<svg aria-hidden="true" style="position: absolute; width: 0; height: 0; overflow: hidden;" version="1.1" xmlns="http://www.w3.org/2000/svg" xmlns:xlink="http://www.w3.org/1999/xlink">
<defs>
<symbol id="icon-balloons" viewBox="0 0 24 24">
<path fill="#f58fbf" style="fill: var(--color1, #f58fbf)" d="M16.513 6.681c-0.147-0.010-0.297-0.016-0.452-0.016-0.543 0-1.050 0.081-1.515 0.229-0.218 2.738-1.433 5.142-2.829 6.619 0.717 2.998 2.763 5.186 4.344 5.186 0.136 0 0.278-0.019 0.422-0.054 1.821-0.444 4.185-3.598 4.185-7.345-0-2.416-1.4-4.422-4.155-4.619z"></path>
<path fill="#c60024" style="fill: var(--color2, #c60024)" d="M16.912 10.917c-0.369 0-0.69 0.208-0.851 0.513-0 0.001-0.001 0.001-0.001 0.002-0.161-0.306-0.482-0.515-0.852-0.515-0.531 0-0.947 0.431-0.947 0.962 0 0.251 0.073 0.393 0.132 0.513 0.244 0.494 1.667 1.673 1.667 1.673s0-0 0.001-0.001c0.043-0.035 1.438-1.19 1.666-1.673 0.057-0.12 0.134-0.273 0.134-0.513 0-0.531-0.418-0.962-0.949-0.962z"></path>
<path fill="#b3d8f5" style="fill: var(--color3, #b3d8f5)" d="M9.449 0.377c-0.16-0.010-0.324-0.015-0.492-0.015-3.386 0-5.625 2.553-5.625 5.659 0 4.969 3.244 9.033 5.625 9.033 0.149 0 0.303-0.018 0.46-0.053 0.734-0.161 1.544-0.689 2.3-1.489 1.397-1.477 2.611-3.881 2.829-6.619 0.023-0.288 0.035-0.579 0.035-0.873 0-2.967-1.729-5.428-5.133-5.644z"></path>
<path fill="#97c7ef" style="fill: var(--color4, #97c7ef)" d="M4.273 6.021c0-2.967 2.042-5.428 5.175-5.644-0.16-0.010-0.324-0.015-0.492-0.015-3.386 0-5.625 2.553-5.625 5.659 0 4.969 3.244 9.033 5.625 9.033 0.149 0 0.303-0.018 0.46-0.053-2.313-0.488-5.143-4.34-5.143-8.981z"></path>
<path fill="#c60024" style="fill: var(--color2, #c60024)" d="M10.108 5.331c-0.499 0-0.933 0.281-1.151 0.694-0 0.001-0.001 0.002-0.001 0.002-0.218-0.414-0.652-0.697-1.152-0.697-0.719 0-1.281 0.583-1.281 1.301 0 0.34 0.099 0.532 0.179 0.694 0.33 0.668 2.255 2.263 2.255 2.263s0-0 0.001-0.001c0.058-0.048 1.944-1.609 2.254-2.262 0.077-0.162 0.181-0.369 0.181-0.694-0-0.718-0.566-1.301-1.284-1.301z"></path>
<path fill="#ef72ac" style="fill: var(--color5, #ef72ac)" d="M12.582 13.513c1.397-1.477 2.611-3.881 2.829-6.619 0.345-0.11 0.713-0.182 1.102-0.213-0.147-0.011-0.297-0.016-0.452-0.016-0.543 0-1.050 0.081-1.515 0.229-0.218 2.738-1.433 5.142-2.829 6.619 0.717 2.998 2.763 5.186 4.344 5.186 0.136 0 0.278-0.019 0.422-0.054-1.5-0.353-3.249-2.408-3.901-5.133z"></path>
<path fill="#f58fbf" style="fill: var(--color1, #f58fbf)" d="M15.956 18.886c0.185 0.185 0.119 0.55-0.146 0.816s-0.631 0.331-0.816 0.146c-0.185-0.185-0.119-0.55 0.146-0.816s0.631-0.331 0.816-0.146z"></path>
<path fill="#f58fbf" style="fill: var(--color1, #f58fbf)" d="M17.129 19.849c-0.185 0.185-0.55 0.119-0.816-0.146s-0.331-0.631-0.146-0.816c0.185-0.185 0.55-0.119 0.816 0.146s0.331 0.631 0.146 0.816z"></path>
<path fill="#b3d8f5" style="fill: var(--color3, #b3d8f5)" d="M8.844 15.167c0.198 0.198 0.128 0.59-0.157 0.875s-0.677 0.355-0.875 0.157c-0.198-0.198-0.128-0.59 0.157-0.875s0.677-0.355 0.875-0.157z"></path>
<path fill="#b3d8f5" style="fill: var(--color3, #b3d8f5)" d="M10.102 16.199c-0.198 0.198-0.59 0.128-0.875-0.157s-0.355-0.677-0.157-0.875c0.198-0.198 0.59-0.128 0.875 0.157s0.355 0.677 0.157 0.875z"></path>
<path fill="#a50020" style="fill: var(--color6, #a50020)" d="M10.108 5.331c-0.499 0-0.933 0.281-1.151 0.694v3.563c0.058-0.048 1.944-1.609 2.254-2.262 0.077-0.162 0.181-0.369 0.181-0.694-0-0.719-0.566-1.301-1.284-1.301z"></path>
<path fill="#a50020" style="fill: var(--color6, #a50020)" d="M16.912 10.917c-0.369 0-0.69 0.208-0.851 0.513v2.634c0.043-0.035 1.438-1.19 1.666-1.673 0.057-0.12 0.134-0.273 0.134-0.513 0-0.531-0.418-0.962-0.949-0.962z"></path>
<path fill="#fff" style="fill: var(--color7, #fff)" d="M11.542 2.56c-0.165-0.111-0.343-0.21-0.529-0.295l0.302-0.658c0.221 0.101 0.432 0.22 0.63 0.352l-0.403 0.601z"></path>
<path fill="#fff" style="fill: var(--color7, #fff)" d="M13.022 4.546c-0.255-0.759-0.682-1.376-1.268-1.833l0.445-0.571c0.69 0.538 1.212 1.289 1.509 2.173l-0.686 0.231z"></path>
<path fill="#fff" style="fill: var(--color7, #fff)" d="M19.281 10.869c-0.131-0.665-0.373-1.237-0.76-1.801l0.596-0.41c0.445 0.648 0.723 1.306 0.874 2.070l-0.71 0.14z"></path>
<path fill="#000" style="fill: var(--color8, #000)" d="M10.107 4.974c-0.437 0-0.847 0.17-1.151 0.463-0.305-0.293-0.714-0.463-1.151-0.463-0.905 0-1.642 0.745-1.642 1.662 0 0.417 0.122 0.663 0.211 0.843l0.005 0.010c0.353 0.716 2.144 2.212 2.347 2.38l0.23 0.191 0.231-0.19c0.205-0.169 2.011-1.671 2.35-2.386l0.009-0.019c0.082-0.173 0.207-0.436 0.207-0.829 0-0.916-0.738-1.662-1.645-1.662zM10.891 7.154l-0.009 0.019c-0.183 0.386-1.196 1.324-1.926 1.944-0.726-0.619-1.736-1.557-1.929-1.949l-0.005-0.011c-0.070-0.141-0.136-0.274-0.136-0.522 0-0.526 0.403-0.938 0.918-0.938 0.35 0 0.668 0.193 0.831 0.503l0.32 0.609 0.32-0.609c0.163-0.31 0.481-0.503 0.831-0.503 0.517 0 0.921 0.412 0.921 0.938 0 0.231-0.070 0.377-0.137 0.519z"></path>
<path fill="#000" style="fill: var(--color8, #000)" d="M15.209 10.558c-0.722 0-1.309 0.594-1.309 1.323 0 0.33 0.1 0.532 0.165 0.665l0.004 0.008c0.264 0.536 1.512 1.586 1.76 1.791l0.23 0.191 0.231-0.19c0.25-0.206 1.509-1.261 1.763-1.797l0.007-0.014c0.065-0.136 0.162-0.341 0.162-0.654 0-0.73-0.588-1.323-1.311-1.323-0.318 0-0.617 0.113-0.851 0.31-0.234-0.197-0.534-0.31-0.851-0.31zM16.912 11.281c0.329 0 0.587 0.263 0.587 0.599 0 0.149-0.043 0.239-0.092 0.343l-0.007 0.015c-0.119 0.251-0.791 0.884-1.339 1.354-0.545-0.469-1.217-1.104-1.342-1.359l-0.004-0.008c-0.051-0.102-0.091-0.183-0.091-0.344 0-0.336 0.257-0.599 0.585-0.599 0.223 0 0.427 0.123 0.531 0.321l0.32 0.609 0.32-0.609c0.104-0.198 0.308-0.321 0.531-0.321z"></path>
<path fill="#000" style="fill: var(--color8, #000)" d="M14.936 6.419c0.005-0.134 0.008-0.266 0.008-0.398 0-1.671-0.536-3.176-1.509-4.239-1.068-1.166-2.616-1.782-4.477-1.782-1.704 0-3.246 0.631-4.343 1.776-1.060 1.107-1.643 2.614-1.643 4.245 0 2.358 0.704 4.696 1.982 6.583 0.816 1.205 1.775 2.078 2.72 2.509-0.395 0.429-0.449 1.009-0.116 1.342 0.147 0.147 0.343 0.219 0.553 0.219 0.066 0 0.133-0.007 0.201-0.021-0.003 0.059-0.005 0.123-0.005 0.191 0 0.554 0.193 0.852 0.348 1.091 0.134 0.208 0.231 0.358 0.231 0.698s-0.097 0.49-0.231 0.698c-0.155 0.239-0.348 0.537-0.348 1.091s0.193 0.852 0.348 1.091c0.134 0.208 0.231 0.358 0.231 0.698s-0.097 0.49-0.231 0.698c-0.155 0.239-0.347 0.537-0.347 1.091h0.724c0-0.34 0.097-0.49 0.231-0.698 0.155-0.239 0.347-0.537 0.347-1.091s-0.193-0.852-0.347-1.091c-0.134-0.208-0.231-0.358-0.231-0.698s0.097-0.49 0.231-0.698c0.155-0.239 0.348-0.537 0.348-1.091s-0.193-0.852-0.348-1.091c-0.134-0.208-0.231-0.358-0.231-0.698 0-0.201 0.016-0.341 0.040-0.456 0.227 0.189 0.491 0.286 0.735 0.286 0.21 0 0.406-0.072 0.553-0.219 0.337-0.337 0.278-0.926-0.129-1.357 0.43-0.205 0.869-0.507 1.302-0.897 0.655 2.128 1.984 3.892 3.364 4.566-0.003 0.003-0.007 0.006-0.010 0.009-0.18 0.18-0.302 0.404-0.343 0.63-0.048 0.27 0.023 0.524 0.196 0.698 0.142 0.142 0.331 0.212 0.533 0.212 0.078 0 0.159-0.011 0.239-0.031-0.002 0.056-0.003 0.116-0.003 0.181 0 0.517 0.119 0.789 0.223 1.028 0.091 0.208 0.163 0.373 0.163 0.739s-0.072 0.531-0.163 0.739c-0.105 0.24-0.223 0.511-0.223 1.028h0.724c0-0.366 0.072-0.531 0.163-0.739 0.105-0.24 0.223-0.511 0.223-1.028s-0.119-0.789-0.223-1.028c-0.091-0.208-0.163-0.373-0.163-0.739 0-0.152 0.006-0.263 0.015-0.351 0.193 0.133 0.406 0.201 0.607 0.201 0.202 0 0.391-0.069 0.533-0.212 0.173-0.173 0.245-0.427 0.196-0.698-0.041-0.226-0.162-0.45-0.343-0.63-0.008-0.008-0.016-0.014-0.024-0.022 0.738-0.375 1.489-1.079 2.143-2.034 1.078-1.575 1.672-3.5 1.672-5.421 0-1.385-0.445-2.634-1.253-3.516-0.887-0.969-2.172-1.481-3.716-1.481-0.386-0-0.763 0.039-1.125 0.115zM8.548 15.628c-0.025 0.050-0.063 0.104-0.117 0.158-0.167 0.167-0.335 0.177-0.363 0.157-0.020-0.028-0.010-0.197 0.157-0.364 0.13-0.13 0.26-0.164 0.325-0.164 0.016 0 0.026 0.002 0.033 0.005-0.008 0.080-0.020 0.147-0.035 0.207zM9.846 15.943c-0.028 0.020-0.197 0.010-0.364-0.157-0.117-0.117-0.157-0.235-0.163-0.305 0-0.010-0.001-0.020-0.001-0.030 0.001-0.013 0.003-0.023 0.007-0.028 0.006-0.005 0.020-0.007 0.039-0.007 0.065 0 0.196 0.035 0.325 0.164 0.167 0.167 0.177 0.335 0.157 0.363zM11.454 13.264c-0.859 0.908-1.769 1.428-2.497 1.428-1.059 0-2.364-0.956-3.406-2.494-1.198-1.769-1.857-3.963-1.857-6.177 0-3.069 2.213-5.297 5.263-5.297 3.197 0 5.263 2.079 5.263 5.297 0 0.277-0.011 0.561-0.034 0.844-0.179 2.251-1.088 4.494-2.453 6.089-0.091 0.106-0.184 0.21-0.279 0.31zM15.69 19.226c-0.017 0.060-0.057 0.141-0.136 0.221-0.128 0.128-0.259 0.154-0.303 0.145-0.009-0.043 0.017-0.175 0.145-0.303 0.125-0.125 0.253-0.152 0.299-0.145-0.001 0.029-0.003 0.057-0.005 0.082zM16.871 19.591c-0.043 0.009-0.175-0.017-0.303-0.145-0.105-0.105-0.141-0.211-0.145-0.27 0-0.006-0-0.012-0.001-0.018 0-0.005 0-0.010 0.001-0.014 0.044-0.009 0.175 0.017 0.303 0.145s0.154 0.259 0.145 0.303zM20.306 11.3c0 3.817-2.608 7.037-4.245 7.037-0.672 0-1.482-0.49-2.223-1.344-0.779-0.899-1.387-2.093-1.723-3.378 0.003-0.003 0.006-0.006 0.009-0.010 0.017-0.019 0.034-0.039 0.052-0.059 0.031-0.035 0.062-0.070 0.092-0.105 0.019-0.022 0.038-0.045 0.057-0.068 0.028-0.033 0.056-0.066 0.084-0.1 0.020-0.024 0.040-0.049 0.059-0.073 0.026-0.033 0.052-0.065 0.078-0.098 0.020-0.026 0.040-0.052 0.060-0.078 0.025-0.033 0.050-0.065 0.074-0.098 0.020-0.027 0.040-0.054 0.060-0.081 0.024-0.033 0.048-0.066 0.071-0.099 0.020-0.028 0.040-0.056 0.059-0.084 0.023-0.033 0.046-0.066 0.069-0.1 0.020-0.029 0.039-0.058 0.058-0.087 0.022-0.033 0.044-0.067 0.066-0.101 0.019-0.029 0.038-0.059 0.057-0.089 0.022-0.034 0.043-0.068 0.064-0.102 0.019-0.030 0.037-0.060 0.056-0.090 0.021-0.034 0.042-0.069 0.062-0.104 0.018-0.031 0.036-0.061 0.054-0.092 0.020-0.035 0.040-0.071 0.060-0.106 0.017-0.031 0.035-0.062 0.052-0.093 0.020-0.036 0.039-0.073 0.059-0.109 0.017-0.031 0.033-0.062 0.050-0.093 0.020-0.038 0.039-0.076 0.058-0.113 0.016-0.030 0.031-0.061 0.047-0.091 0.020-0.041 0.040-0.082 0.060-0.124 0.014-0.028 0.027-0.056 0.041-0.084 0.032-0.067 0.063-0.134 0.094-0.202 0.011-0.024 0.021-0.048 0.032-0.072 0.021-0.048 0.043-0.097 0.064-0.145 0.013-0.031 0.026-0.062 0.039-0.092 0.017-0.041 0.034-0.081 0.051-0.122 0.013-0.033 0.026-0.066 0.039-0.099 0.016-0.039 0.031-0.078 0.046-0.118 0.013-0.034 0.026-0.068 0.039-0.103 0.014-0.039 0.029-0.077 0.043-0.116 0.013-0.035 0.025-0.070 0.037-0.105 0.014-0.039 0.027-0.077 0.040-0.116 0.012-0.035 0.024-0.071 0.035-0.106 0.013-0.039 0.026-0.078 0.038-0.117 0.011-0.036 0.023-0.071 0.033-0.107 0.012-0.039 0.024-0.078 0.036-0.118 0.011-0.036 0.021-0.072 0.032-0.108 0.011-0.039 0.023-0.079 0.033-0.119 0.010-0.036 0.020-0.072 0.029-0.108 0.011-0.040 0.021-0.080 0.031-0.12 0.009-0.036 0.018-0.072 0.027-0.107 0.010-0.041 0.020-0.081 0.029-0.122 0.008-0.036 0.017-0.071 0.025-0.107 0.009-0.042 0.018-0.083 0.027-0.125 0.008-0.035 0.015-0.070 0.022-0.105 0.009-0.043 0.017-0.086 0.025-0.129 0.007-0.034 0.013-0.068 0.019-0.101 0.008-0.045 0.016-0.090 0.024-0.135 0.006-0.032 0.011-0.064 0.017-0.097 0.008-0.049 0.015-0.098 0.023-0.147 0.004-0.028 0.009-0.056 0.013-0.085 0.009-0.064 0.018-0.129 0.026-0.194 0.002-0.013 0.004-0.026 0.005-0.039 0.009-0.076 0.018-0.152 0.026-0.228 0.374-0.097 0.769-0.146 1.177-0.146 2.579-0 4.245 1.677 4.245 4.273z"></path>
</symbol>
</defs>
</svg>
