<svg aria-hidden="true" style="position:absolute;width:0;height:0;overflow:hidden" xmlns="http://www.w3.org/2000/svg"><defs><symbol id="icon-succes" viewBox="0 0 32 32"><path fill="#0074ff" style="fill:var(--color1, #0074ff)" d="M20.89 28.565a3.543 3.543 0 0 1-2.11-.702l.009.007-2.16-1.58c-.255-.19-.577-.304-.925-.304s-.67.114-.929.307l.004-.003-2.16 1.58a3.57 3.57 0 0 1-5.654-3.281l-.001.016.29-2.66a1.555 1.555 0 0 0-.915-1.596l-.01-.004-2.445-1.08C2.617 18.7 1.75 17.451 1.75 16s.867-2.7 2.111-3.256l.023-.009 2.445-1.08a1.558 1.558 0 0 0 .925-1.607l.001.007-.29-2.66a3.57 3.57 0 0 1 5.664-3.258l-.01-.007 2.16 1.58c.255.19.577.304.925.304s.67-.114.929-.307l-.004.003 2.16-1.58a3.473 3.473 0 0 1 2.082-.687c.222 0 .439.021.649.06l-.022-.003a3.64 3.64 0 0 1 2.367 1.552l.008.013a1 1 0 1 1-1.668 1.104l-.002-.004a1.617 1.617 0 0 0-1.05-.693l-.01-.002a1.497 1.497 0 0 0-1.188.287l.003-.003-2.16 1.58c-.582.431-1.315.69-2.107.69s-1.525-.259-2.117-.697l.01.007-2.155-1.58A1.565 1.565 0 0 0 8.93 7.196l-.001-.008.29 2.655a3.556 3.556 0 0 1-2.057 3.646l-.022.009-2.45 1.08a1.57 1.57 0 0 0-.01 2.866l.01.004 2.45 1.05a3.562 3.562 0 0 1 2.103 3.667l.002-.016-.29 2.655a1.565 1.565 0 0 0 2.504 1.433l2.151-1.577c.582-.431 1.315-.69 2.107-.69s1.525.259 2.117.697l-.01-.007 2.16 1.58a1.565 1.565 0 0 0 2.499-1.442l.001.008-.29-2.655a3.55 3.55 0 0 1 2.053-3.641l.022-.009 2.45-1.08a1.57 1.57 0 0 0 .01-2.866l-.01-.004-1.33-.55a1 1 0 1 1 .811-1.827l-.006-.003 1.33.585c1.267.565 2.134 1.814 2.134 3.265s-.867 2.7-2.111 3.256l-.023.009-2.445 1.08a1.568 1.568 0 0 0-.93 1.607l-.001-.007.29 2.66a3.498 3.498 0 0 1-1.742 3.466l-.017.009a3.54 3.54 0 0 1-1.766.465h-.025.001z"/><path fill="#ffb300" style="fill:var(--color2, #ffb300)" d="M15.82 19.5h-.001a.997.997 0 0 1-.709-.295L10.805 14.9a1 1 0 1 1 1.413-1.402l.001.002 3.6 3.6 12.72-12.74a1 1 0 0 1 1.409 1.416l.001-.001L16.524 19.2a1 1 0 0 1-.704.3h-.001z"/></symbol><symbol id="icon-phone" viewBox="0 0 32 32"><path d="M21.468 17.812zm.607-.604zm3.222-.422zm2.547 1.385zm.718 4.34zm-1.894 1.883zm-1.766.893zm-13.148-5.652zM5.337 7.661zm8.633 1.936zm.209-3.539zm-1.681-2.246zm-4.149-.379zM6.256 5.514zm9.828 9.816zm6.089 3.191.607-.604-1.41-1.418-.607.604 1.41 1.418zm2.646-.857 2.547 1.385.955-1.757-2.547-1.385-.955 1.757zm3.038 4.137-1.894 1.883 1.41 1.418 1.894-1.883-1.41-1.418zm-3.048 2.49c-1.933.18-6.935.02-12.35-5.365l-1.41 1.418c5.909 5.876 11.534 6.163 13.946 5.938l-.186-1.991zm-12.35-5.365C7.297 13.793 6.442 9.477 6.336 7.604l-1.997.113c.134 2.357 1.193 7.141 6.71 12.627l1.41-1.418zm1.834-8.24.382-.38-1.41-1.418-.382.38 1.41 1.418zm.686-5.227-1.681-2.246-1.601 1.199 1.681 2.246 1.601-1.199zM7.644 2.724 5.551 4.805l1.41 1.418 2.093-2.081-1.41-1.418zm5.944 7.253c-.705-.709-.706-.708-.707-.707l-.002.002-.004.004-.008.009-.018.019-.042.048a2.067 2.067 0 0 0-.318.558c-.136.361-.209.838-.118 1.428.179 1.154.974 2.678 3.009 4.701l1.41-1.418c-1.905-1.894-2.358-3.046-2.443-3.59-.04-.259.001-.386.013-.416.007-.019.01-.021.002-.008a.315.315 0 0 1-.022.029c-.005.007-.012.014-.02.022l-.012.013-.007.007-.004.004-.002.002c-.001 0-.002.002-.707-.707zm1.791 6.062c2.036 2.024 3.567 2.812 4.723 2.99.591.091 1.067.018 1.428-.116.177-.066.318-.144.425-.215a1.73 1.73 0 0 0 .211-.168l.004-.004.002-.002s.002-.002-.703-.711-.704-.71-.703-.711l.002-.002.004-.004.007-.007.013-.012.022-.019a.554.554 0 0 1 .029-.022c.012-.008.01-.005-.01.003-.033.012-.163.054-.426.013-.551-.084-1.712-.538-3.616-2.431l-1.41 1.418zM13.298 3.213c-1.359-1.815-4.032-2.103-5.655-.489l1.41 1.418c.709-.705 1.968-.633 2.643.269l1.601-1.199zM6.336 7.604c-.026-.461.185-.944.625-1.381l-1.41-1.418c-.716.712-1.28 1.721-1.212 2.913l1.997-.113zm19.627 16.081c-.366.364-.759.57-1.154.606l.186 1.991c.979-.091 1.782-.586 2.379-1.179l-1.41-1.418zM14.675 10.306c1.313-1.305 1.41-3.37.304-4.847l-1.601 1.199c.538.719.458 1.662-.113 2.23l1.41 1.418zm12.692 8.743c1.09.593 1.26 1.987.49 2.752l1.41 1.418c1.787-1.777 1.236-4.742-.945-5.928l-.955 1.757zm-4.587-1.132c.512-.509 1.336-.635 2.039-.253l.955-1.757c-1.445-.785-3.238-.569-4.405.592l1.41 1.418z"/></symbol><symbol id="icon-burger" viewBox="0 0 24 24"><path d="M2.571 6c0-.473.384-.857.857-.857h17.143a.857.857 0 0 1 0 1.714H3.428A.857.857 0 0 1 2.571 6zM2.571 12c0-.473.384-.857.857-.857h17.143a.857.857 0 0 1 0 1.714H3.428A.857.857 0 0 1 2.571 12zM3.429 17.143a.857.857 0 0 0 0 1.714h17.143a.857.857 0 0 0 0-1.714H3.429z"/></symbol><symbol id="icon-email" viewBox="0 0 20 20"><path d="M3.238 4.364c-.567.526-.946 1.38-.946 2.719v5.833c0 1.339.379 2.193.946 2.719.575.534 1.441.823 2.596.823h8.333c1.154 0 2.021-.289 2.596-.823.567-.526.946-1.38.946-2.719V7.083c0-1.339-.379-2.193-.946-2.719-.575-.534-1.441-.823-2.596-.823H5.834c-1.154 0-2.021.289-2.596.823zm-.851-.916c.883-.82 2.1-1.157 3.446-1.157h8.333c1.346 0 2.563.336 3.446 1.157.892.828 1.346 2.058 1.346 3.635v5.833c0 1.578-.454 2.807-1.346 3.635-.883.82-2.1 1.157-3.446 1.157H5.833c-1.346 0-2.563-.336-3.446-1.157-.892-.828-1.346-2.058-1.346-3.635V7.083c0-1.577.454-2.807 1.346-3.635z"/><path d="M16.136 6.092a.625.625 0 0 1-.112.877l-4.623 3.572a2.29 2.29 0 0 1-2.802 0L3.976 6.969a.625.625 0 0 1 .765-.989l4.623 3.572c.375.29.899.29 1.274 0l4.623-3.572a.625.625 0 0 1 .877.112z"/></symbol><symbol id="icon-user" viewBox="0 0 24 24"><path d="M21.773 20.245c-.639-1.153-1.617-1.956-2.558-2.524s-1.86-.905-2.398-1.107c-.41-.152-.842-.349-1.139-.559a1.397 1.397 0 0 1-.324-.295c-.064-.088-.077-.143-.077-.186v-1.608a2.34 2.34 0 0 1 .191-.385c.118-.195.276-.391.434-.687.131-.247.249-.557.339-.963.08-.039.159-.084.237-.138.238-.164.439-.403.603-.716.166-.314.31-.708.462-1.241l-.001.004.001-.004c.079-.277.116-.52.116-.741.003-.355-.108-.663-.292-.871a1.03 1.03 0 0 0-.203-.177c.023-.273.065-.636.105-1.055.046-.486.087-1.041.087-1.616-.002-.91-.099-1.87-.484-2.699a3.05 3.05 0 0 0-.833-1.094 2.941 2.941 0 0 0-1.259-.581c-.335-.257-.659-.481-1.063-.637-.436-.169-.939-.247-1.604-.247-.21 0-.437.008-.685.023-.694.003-1.262.088-1.811.086-.383 0-.76-.037-1.198-.162l-.234-.067-.187.156c-.575.488-.883 1.215-1.072 2.024-.186.812-.247 1.724-.247 2.629 0 1.181.106 2.347.195 3.222a1.097 1.097 0 0 0-.201.164c-.198.207-.322.528-.319.9 0 .221.038.464.116.74v.001c.204.711.389 1.176.639 1.529.125.175.269.319.426.428.077.054.156.098.235.137.142.608.382 1.049.587 1.368.116.181.218.324.281.431.06.101.078.158.082.184v1.661c0 .033-.013.092-.084.187-.103.14-.328.318-.597.468a5.457 5.457 0 0 1-.851.382c-.732.259-2.121.765-3.35 1.749-.615.493-1.192 1.109-1.616 1.879s-.691 1.692-.69 2.765c0 .186.008.378.024.573l.035.421h20.812l.035-.421c.016-.195.024-.386.024-.572a5.615 5.615 0 0 0-.692-2.762zm-.23 2.836H2.456l-.003-.075c.001-.923.223-1.679.576-2.322.529-.962 1.371-1.673 2.225-2.188s1.709-.829 2.241-1.017c.42-.149.907-.364 1.322-.652.208-.145.399-.308.552-.51.152-.199.271-.451.271-.742v-1.724l-.003-.024a1.388 1.388 0 0 0-.208-.567c-.141-.235-.3-.44-.445-.706a3.258 3.258 0 0 1-.359-1.034l-.046-.263-.251-.09a1.1 1.1 0 0 1-.266-.129c-.102-.072-.196-.169-.316-.392-.118-.221-.248-.562-.39-1.063a1.83 1.83 0 0 1-.082-.489c.004-.197.047-.243.071-.273a.229.229 0 0 1 .121-.062l.399-.089-.043-.407c-.094-.893-.225-2.181-.225-3.456 0-.862.061-1.717.224-2.423.135-.596.348-1.07.612-1.371.424.097.817.132 1.184.132.648-.001 1.213-.088 1.836-.087h.015l.016-.001c.233-.014.442-.021.63-.021.598 0 .971.069 1.273.185s.561.294.911.567l.09.07.112.02c.41.074.714.22.96.418.366.296.612.734.767 1.276.155.54.211 1.174.21 1.804 0 .53-.039 1.058-.083 1.529s-.095.884-.117 1.205a4.235 4.235 0 0 1-.015.162l-.041.391.381.1a.216.216 0 0 1 .111.062c.023.03.064.081.067.269 0 .114-.02.275-.081.487v.001c-.189.668-.359 1.049-.503 1.248-.072.1-.134.159-.204.207s-.151.088-.266.129l-.251.09-.046.263a3.64 3.64 0 0 1-.19.708c-.105.262-.217.424-.362.638a3.568 3.568 0 0 0-.452.852l-.027.075v1.78c-.001.281.109.532.256.73.223.299.527.515.856.704.33.187.688.34 1.025.466.713.265 1.999.745 3.086 1.615.543.434 1.034.96 1.388 1.6.354.641.576 1.395.577 2.317l-.003.074z"/></symbol><symbol id="icon-city" viewBox="0 0 20 20"><path d="M6.25 2.427 1.875 4.615v12.886h16.25V6.251h-7.5V4.615L6.25 2.427zm0 1.396 3.125 1.563V16.25h-6.25V5.386L6.25 3.823zM4.375 6.25V7.5h1.25V6.25h-1.25zm2.5 0V7.5h1.25V6.25h-1.25zm3.75 1.25h6.25v8.75h-6.25V7.5zm-6.25 1.25V10h1.25V8.75h-1.25zm2.5 0V10h1.25V8.75h-1.25zm5 0V10h1.25V8.75h-1.25zm2.5 0V10h1.25V8.75h-1.25zm-10 2.5v1.25h1.25v-1.25h-1.25zm2.5 0v1.25h1.25v-1.25h-1.25zm5 0v1.25h1.25v-1.25h-1.25zm2.5 0v1.25h1.25v-1.25h-1.25zm-10 2.5V15h1.25v-1.25h-1.25zm2.5 0V15h1.25v-1.25h-1.25zm5 0V15h1.25v-1.25h-1.25zm2.5 0V15h1.25v-1.25h-1.25z"/></symbol><symbol id="icon-spa" viewBox="0 0 24 24"><path d="M11.616 13.322a.72.72 0 1 0-.152-1.432l.151 1.432zM3.314 5.13l.72.021v-.016l-.72-.005zm.719-.714v.72h.008l-.008-.72zm4.166 1.938a.72.72 0 1 0 .79-1.204l-.79 1.204zM4.033 3.696c-.38 0-.745.15-1.014.418l1.014 1.022v-1.44zm-1.014.418c-.27.268-.422.631-.425 1.011l1.44.01-1.015-1.022zm-.424.995c-.145 4.97 4.245 8.718 9.022 8.213l-.151-1.432c-3.963.419-7.549-2.694-7.431-6.738L2.596 5.11zm6.395.042a8.867 8.867 0 0 0-4.964-1.455l.016 1.44A7.427 7.427 0 0 1 8.2 6.354l.791-1.204z"/><path d="M13.939 5.242a.72.72 0 1 0 .81 1.19l-.81-1.191zm5.071-.826-.004.72h.003l.001-.72zm.717.714-.72.004v.017l.72-.02zm-2.077 5.437.49.528.033-.032-.523-.495zm-2.834 1.68zm-3.092-.35a.72.72 0 0 0-.129 1.435l.129-1.434zm3.025-5.464a7.494 7.494 0 0 1 4.257-1.297l.008-1.44a8.94 8.94 0 0 0-5.075 1.546l.81 1.191zm4.26-1.297-.001-.001 1.016-1.02a1.435 1.435 0 0 0-1.013-.419l-.002 1.44zm-.001-.001-.001-.001 1.44-.008a1.437 1.437 0 0 0-.423-1.011l-1.016 1.02zm-.001.016a6.86 6.86 0 0 1-.45 2.648l1.345.514c.39-1.021.575-2.11.544-3.203l-1.439.041zm-.449 2.647a6.875 6.875 0 0 1-1.431 2.273l1.045.99a8.31 8.31 0 0 0 1.73-2.749l-1.345-.514zm-1.398 2.241a7.054 7.054 0 0 1-2.572 1.525l.455 1.366a8.493 8.493 0 0 0 3.096-1.836l-.98-1.055zm-2.572 1.525a7.063 7.063 0 0 1-2.864.334l-.129 1.434a8.492 8.492 0 0 0 3.448-.402l-.455-1.366zM19.441 14.562a.72.72 0 1 0-1.44-.024l1.44.024zm-14.399-.024a.719.719 0 1 0-1.44.024l1.44-.023zm12.959 0c-.009.573-.503 1.284-1.728 1.892-1.183.587-2.86.97-4.751.97v1.44c2.065 0 3.971-.415 5.391-1.12 1.377-.683 2.505-1.757 2.528-3.158l-1.44-.024zM11.522 17.4c-1.891 0-3.569-.382-4.752-.968-1.225-.607-1.719-1.318-1.728-1.893l-1.44.023c.023 1.403 1.151 2.477 2.528 3.16 1.42.704 3.326 1.118 5.391 1.118V17.4z"/><path d="M22.32 14.517h.72v-.007l-.72.007zm-21.6.003L0 14.513v.007h.72zm1.495-2.476a.72.72 0 0 0-1.192-.808l1.192.808zm19.817-.786a.72.72 0 0 0-1.196.802l1.196-.803zm-.432 3.259c0 1.673-1.017 3.275-2.843 4.492-1.821 1.214-4.377 1.988-7.237 1.988v1.44c3.105 0 5.948-.838 8.036-2.23 2.083-1.389 3.484-3.386 3.484-5.69H21.6zm-10.08 6.48c-2.86 0-5.417-.773-7.237-1.987-1.826-1.216-2.843-2.818-2.843-4.49H0c0 2.304 1.401 4.301 3.484 5.689 2.088 1.391 4.931 2.228 8.036 2.228v-1.44zm-10.08-6.47c.008-.886.278-1.75.775-2.483l-1.192-.808a5.932 5.932 0 0 0-1.022 3.277l1.44.013zm19.397-2.466c.489.729.755 1.585.763 2.464l1.44-.014a5.936 5.936 0 0 0-1.008-3.252l-1.196.803zM11.541 12.606l-.453.56a.72.72 0 0 0 .906 0l-.453-.56zm-2.88-5.76-.72-.02v.046l.72-.026zm2.386-5.324.494.524.01-.01-.504-.514zm.494-.202zm.494.202-.504.514.01.01.494-.524zm2.386 5.324.72.026a.353.353 0 0 0 0-.046l-.72.02zm-2.87-4.81a.013.013 0 0 1-.01.004V.6c-.373 0-.731.146-.998.408l1.008 1.028zm-.01.004a.013.013 0 0 1-.01-.004l1.008-1.028A1.427 1.427 0 0 0 11.541.6v1.44zM9.38 6.865a6.95 6.95 0 0 1 2.16-4.82L10.553.997A8.385 8.385 0 0 0 7.94 6.826l1.439.039zm2.613 5.181A7.11 7.11 0 0 1 9.38 6.819l-1.439.053a8.546 8.546 0 0 0 3.147 6.293l.906-1.12zm1.708-5.227a7.11 7.11 0 0 1-2.613 5.227l.906 1.12a8.553 8.553 0 0 0 3.147-6.293l-1.439-.053zm-2.16-4.773a6.954 6.954 0 0 1 2.16 4.82l1.439-.039A8.392 8.392 0 0 0 12.528.998l-.987 1.048z"/></symbol></defs></svg>