<svg aria-hidden="true" style="position: absolute; width: 0; height: 0; overflow: hidden;" version="1.1" xmlns="http://www.w3.org/2000/svg" xmlns:xlink="http://www.w3.org/1999/xlink">
<defs>
<symbol id="icon-succes" viewBox="0 0 32 32">
<path fill="#0074ff" style="fill: var(--color1, #0074ff)" d="M20.89 28.565c-0.791-0.003-1.52-0.263-2.11-0.702l0.009 0.007-2.16-1.58c-0.255-0.19-0.577-0.304-0.925-0.304s-0.67 0.114-0.929 0.307l0.004-0.003-2.16 1.58c-0.582 0.429-1.314 0.687-2.106 0.687-1.972 0-3.57-1.598-3.57-3.57 0-0.135 0.007-0.267 0.022-0.398l-0.001 0.016 0.29-2.66c0.006-0.052 0.010-0.113 0.010-0.174 0-0.634-0.38-1.18-0.925-1.422l-0.010-0.004-2.445-1.080c-1.267-0.565-2.134-1.814-2.134-3.265s0.867-2.7 2.111-3.256l0.023-0.009 2.445-1.080c0.555-0.246 0.935-0.791 0.935-1.426 0-0.061-0.004-0.122-0.010-0.181l0.001 0.007-0.29-2.66c-0.013-0.115-0.021-0.247-0.021-0.382 0-1.972 1.598-3.57 3.57-3.57 0.792 0 1.523 0.258 2.115 0.694l-0.010-0.007 2.16 1.58c0.255 0.19 0.577 0.304 0.925 0.304s0.67-0.114 0.929-0.307l-0.004 0.003 2.16-1.58c0.574-0.429 1.298-0.687 2.082-0.687 0.222 0 0.439 0.021 0.649 0.060l-0.022-0.003c0.997 0.186 1.835 0.758 2.367 1.552l0.008 0.013c0.109 0.158 0.174 0.353 0.174 0.564 0 0.552-0.448 1-1 1-0.353 0-0.664-0.183-0.842-0.46l-0.002-0.004c-0.241-0.359-0.615-0.613-1.050-0.693l-0.010-0.002c-0.082-0.016-0.176-0.025-0.272-0.025-0.345 0-0.663 0.117-0.916 0.312l0.003-0.003-2.16 1.58c-0.582 0.431-1.315 0.69-2.107 0.69s-1.525-0.259-2.117-0.697l0.010 0.007-2.155-1.58c-0.26-0.199-0.589-0.319-0.946-0.319-0.864 0-1.565 0.701-1.565 1.565 0 0.066 0.004 0.132 0.012 0.196l-0.001-0.008 0.29 2.655c0.015 0.123 0.024 0.265 0.024 0.41 0 1.438-0.854 2.676-2.081 3.236l-0.022 0.009-2.45 1.080c-0.554 0.25-0.933 0.799-0.933 1.435s0.379 1.185 0.923 1.431l0.010 0.004 2.45 1.050c1.263 0.564 2.127 1.809 2.127 3.256 0 0.139-0.008 0.276-0.024 0.411l0.002-0.016-0.29 2.655c-0.007 0.057-0.011 0.122-0.011 0.189 0 0.864 0.701 1.565 1.565 1.565 0.357 0 0.687-0.12 0.95-0.321l2.151-1.577c0.582-0.431 1.315-0.69 2.107-0.69s1.525 0.259 2.117 0.697l-0.010-0.007 2.16 1.58c0.26 0.199 0.589 0.319 0.946 0.319 0.864 0 1.565-0.701 1.565-1.565 0-0.066-0.004-0.132-0.012-0.196l0.001 0.008-0.29-2.655c-0.015-0.123-0.024-0.266-0.024-0.41 0-1.435 0.851-2.671 2.077-3.231l0.022-0.009 2.45-1.080c0.554-0.25 0.933-0.799 0.933-1.435s-0.379-1.185-0.923-1.431l-0.010-0.004-1.33-0.55c-0.368-0.153-0.623-0.51-0.623-0.926 0-0.552 0.448-1 1-1 0.155 0 0.303 0.035 0.434 0.099l-0.006-0.003 1.33 0.585c1.267 0.565 2.134 1.814 2.134 3.265s-0.867 2.7-2.111 3.256l-0.023 0.009-2.445 1.080c-0.557 0.248-0.939 0.796-0.939 1.434 0 0.058 0.003 0.116 0.009 0.173l-0.001-0.007 0.29 2.66c0.016 0.127 0.026 0.274 0.026 0.424 0 1.303-0.712 2.44-1.768 3.042l-0.017 0.009c-0.508 0.293-1.117 0.465-1.766 0.465-0.008 0-0.017-0-0.025-0h0.001z"></path>
<path fill="#ffb300" style="fill: var(--color2, #ffb300)" d="M15.82 19.5c-0 0-0.001 0-0.001 0-0.277 0-0.528-0.113-0.709-0.295l-0-0-4.305-4.305c-0.221-0.185-0.361-0.461-0.361-0.769 0-0.552 0.448-1 1-1 0.312 0 0.591 0.143 0.774 0.367l0.001 0.002 3.6 3.6 12.72-12.74c0.177-0.16 0.412-0.258 0.67-0.258 0.552 0 1 0.448 1 1 0 0.259-0.099 0.496-0.261 0.674l0.001-0.001-13.425 13.425c-0.18 0.183-0.429 0.297-0.704 0.3h-0.001z"></path>
</symbol>
<symbol id="icon-map" viewBox="0 0 24 24">
<path  d="M3.25 10.143c0-4.899 3.905-8.893 8.75-8.893s8.75 3.994 8.75 8.893c0 2.365-0.674 4.905-1.866 7.099-1.19 2.191-2.929 4.095-5.104 5.112-1.13 0.528-2.431 0.528-3.561 0-2.175-1.017-3.914-2.921-5.104-5.112-1.192-2.194-1.866-4.734-1.866-7.099zM12 2.75c-3.992 0-7.25 3.297-7.25 7.393 0 2.097 0.603 4.392 1.684 6.383 1.083 1.993 2.612 3.624 4.421 4.469 0.728 0.34 1.563 0.34 2.291 0 1.809-0.845 3.338-2.476 4.421-4.469 1.081-1.991 1.684-4.286 1.684-6.383 0-4.096-3.258-7.393-7.25-7.393zM12 7.75c-1.243 0-2.25 1.007-2.25 2.25s1.007 2.25 2.25 2.25 2.25-1.007 2.25-2.25c0-1.243-1.007-2.25-2.25-2.25zM8.25 10c0-2.071 1.679-3.75 3.75-3.75s3.75 1.679 3.75 3.75c0 2.071-1.679 3.75-3.75 3.75s-3.75-1.679-3.75-3.75z"></path>
</symbol>
<symbol id="icon-phone" viewBox="0 0 32 32">
<path  d="M21.468 17.812v0zM22.075 17.208v0zM25.297 16.786v0zM27.844 18.171v0zM28.562 22.511v0zM26.668 24.394v0zM24.902 25.287v0zM11.754 19.635v0zM5.337 7.661v0zM13.97 9.597v0zM14.179 6.058v0zM12.498 3.812v0zM8.349 3.433v0zM6.256 5.514v0zM16.084 15.33v0zM22.173 18.521l0.607-0.604-1.41-1.418-0.607 0.604 1.41 1.418zM24.819 17.664l2.547 1.385 0.955-1.757-2.547-1.385-0.955 1.757zM27.857 21.801l-1.894 1.883 1.41 1.418 1.894-1.883-1.41-1.418zM24.809 24.291c-1.933 0.18-6.935 0.020-12.35-5.365l-1.41 1.418c5.909 5.876 11.534 6.163 13.946 5.938l-0.186-1.991zM12.459 18.926c-5.162-5.133-6.017-9.449-6.123-11.322l-1.997 0.113c0.134 2.357 1.193 7.141 6.71 12.627l1.41-1.418zM14.293 10.686l0.382-0.38-1.41-1.418-0.382 0.38 1.41 1.418zM14.979 5.459l-1.681-2.246-1.601 1.199 1.681 2.246 1.601-1.199zM7.644 2.724l-2.093 2.081 1.41 1.418 2.093-2.081-1.41-1.418zM13.588 9.977c-0.705-0.709-0.706-0.708-0.707-0.707s-0.001 0.001-0.002 0.002-0.003 0.003-0.004 0.004-0.005 0.006-0.008 0.009-0.012 0.012-0.018 0.019-0.027 0.030-0.042 0.048c-0.030 0.036-0.064 0.080-0.1 0.134-0.072 0.107-0.151 0.247-0.218 0.424-0.136 0.361-0.209 0.838-0.118 1.428 0.179 1.154 0.974 2.678 3.009 4.701l1.41-1.418c-1.905-1.894-2.358-3.046-2.443-3.59-0.040-0.259 0.001-0.386 0.013-0.416 0.007-0.019 0.010-0.021 0.002-0.008-0.004 0.006-0.011 0.016-0.022 0.029-0.005 0.007-0.012 0.014-0.020 0.022-0.004 0.004-0.008 0.008-0.012 0.013-0.002 0.002-0.004 0.005-0.007 0.007-0.001 0.001-0.002 0.002-0.004 0.004s-0.001 0.002-0.002 0.002-0.002 0.002-0.707-0.707zM15.379 16.039c2.036 2.024 3.567 2.812 4.723 2.99 0.591 0.091 1.067 0.018 1.428-0.116 0.177-0.066 0.318-0.144 0.425-0.215 0.053-0.036 0.098-0.070 0.134-0.1 0.018-0.015 0.034-0.029 0.048-0.042 0.007-0.006 0.014-0.012 0.020-0.018 0.003-0.003 0.006-0.006 0.009-0.008 0.001-0.001 0.003-0.003 0.004-0.004s0.002-0.002 0.002-0.002 0.002-0.002-0.703-0.711c-0.705-0.709-0.704-0.71-0.703-0.711s0.001-0.001 0.002-0.002 0.002-0.002 0.004-0.004 0.005-0.005 0.007-0.007 0.009-0.008 0.013-0.012 0.016-0.014 0.022-0.019 0.023-0.018 0.029-0.022c0.012-0.008 0.010-0.005-0.010 0.003-0.033 0.012-0.163 0.054-0.426 0.013-0.551-0.084-1.712-0.538-3.616-2.431l-1.41 1.418zM13.298 3.213c-1.359-1.815-4.032-2.103-5.655-0.489l1.41 1.418c0.709-0.705 1.968-0.633 2.643 0.269l1.601-1.199zM6.336 7.604c-0.026-0.461 0.185-0.944 0.625-1.381l-1.41-1.418c-0.716 0.712-1.28 1.721-1.212 2.913l1.997-0.113zM25.963 23.685c-0.366 0.364-0.759 0.57-1.154 0.606l0.186 1.991c0.979-0.091 1.782-0.586 2.379-1.179l-1.41-1.418zM14.675 10.306c1.313-1.305 1.41-3.37 0.304-4.847l-1.601 1.199c0.538 0.719 0.458 1.662-0.113 2.23l1.41 1.418zM27.367 19.049c1.090 0.593 1.26 1.987 0.49 2.752l1.41 1.418c1.787-1.777 1.236-4.742-0.945-5.928l-0.955 1.757zM22.78 17.917c0.512-0.509 1.336-0.635 2.039-0.253l0.955-1.757c-1.445-0.785-3.238-0.569-4.405 0.592l1.41 1.418z"></path>
<symbol id="icon-burger" viewBox="0 0 24 24">
<path d="M2.571 6c0-0.473 0.384-0.857 0.857-0.857h17.143c0.473 0 0.857 0.384 0.857 0.857s-0.384 0.857-0.857 0.857h-17.143c-0.473 0-0.857-0.384-0.857-0.857z"></path>
<path d="M2.571 12c0-0.473 0.384-0.857 0.857-0.857h17.143c0.473 0 0.857 0.384 0.857 0.857s-0.384 0.857-0.857 0.857h-17.143c-0.473 0-0.857-0.384-0.857-0.857z"></path>
<path d="M3.429 17.143c-0.473 0-0.857 0.384-0.857 0.857s0.384 0.857 0.857 0.857h17.143c0.473 0 0.857-0.384 0.857-0.857s-0.384-0.857-0.857-0.857h-17.143z"></path>
</symbol>
<symbol id="icon-email" viewBox="0 0 20 20">
<path d="M3.238 4.364c-0.567 0.526-0.946 1.38-0.946 2.719v5.833c0 1.339 0.379 2.193 0.946 2.719 0.575 0.534 1.441 0.823 2.596 0.823h8.333c1.154 0 2.021-0.289 2.596-0.823 0.567-0.526 0.946-1.38 0.946-2.719v-5.833c0-1.339-0.379-2.193-0.946-2.719-0.575-0.534-1.441-0.823-2.596-0.823h-8.333c-1.154 0-2.021 0.289-2.596 0.823zM2.387 3.448c0.883-0.82 2.1-1.157 3.446-1.157h8.333c1.346 0 2.563 0.336 3.446 1.157 0.892 0.828 1.346 2.058 1.346 3.635v5.833c0 1.578-0.454 2.807-1.346 3.635-0.883 0.82-2.1 1.157-3.446 1.157h-8.333c-1.346 0-2.563-0.336-3.446-1.157-0.892-0.828-1.346-2.058-1.346-3.635v-5.833c0-1.577 0.454-2.807 1.346-3.635z"></path>
<path d="M16.136 6.092c0.211 0.273 0.161 0.666-0.112 0.877l-4.623 3.572c-0.825 0.638-1.977 0.638-2.802 0l-4.623-3.572c-0.273-0.211-0.323-0.604-0.112-0.877s0.604-0.323 0.877-0.112l4.623 3.572c0.375 0.29 0.899 0.29 1.274 0l4.623-3.572c0.273-0.211 0.666-0.161 0.877 0.112z"></path>
</symbol>
<symbol id="icon-user" viewBox="0 0 24 24">
<path d="M21.773 20.245c-0.639-1.153-1.617-1.956-2.558-2.524s-1.86-0.905-2.398-1.107c-0.41-0.152-0.842-0.349-1.139-0.559-0.149-0.103-0.261-0.209-0.324-0.295-0.064-0.088-0.077-0.143-0.077-0.186 0-0.41 0-0.922 0-1.608 0.059-0.15 0.121-0.272 0.191-0.385 0.118-0.195 0.276-0.391 0.434-0.687 0.131-0.247 0.249-0.557 0.339-0.963 0.080-0.039 0.159-0.084 0.237-0.138 0.238-0.164 0.439-0.403 0.603-0.716 0.166-0.314 0.31-0.708 0.462-1.241l-0.001 0.004 0.001-0.004c0.079-0.277 0.116-0.52 0.116-0.741 0.003-0.355-0.108-0.663-0.292-0.871-0.064-0.074-0.133-0.129-0.203-0.177 0.023-0.273 0.065-0.636 0.105-1.055 0.046-0.486 0.087-1.041 0.087-1.616-0.002-0.91-0.099-1.87-0.484-2.699-0.193-0.413-0.463-0.794-0.833-1.094-0.34-0.277-0.765-0.476-1.259-0.581-0.335-0.257-0.659-0.481-1.063-0.637-0.436-0.169-0.939-0.247-1.604-0.247-0.21 0-0.437 0.008-0.685 0.023-0.694 0.003-1.262 0.088-1.811 0.086-0.383-0-0.76-0.037-1.198-0.162l-0.234-0.067-0.187 0.156c-0.575 0.488-0.883 1.215-1.072 2.024-0.186 0.812-0.247 1.724-0.247 2.629 0 1.181 0.106 2.347 0.195 3.222-0.068 0.044-0.136 0.096-0.201 0.164-0.198 0.207-0.322 0.528-0.319 0.9 0 0.221 0.038 0.464 0.116 0.74l0 0.001c0.204 0.711 0.389 1.176 0.639 1.529 0.125 0.175 0.269 0.319 0.426 0.428 0.077 0.054 0.156 0.098 0.235 0.137 0.142 0.608 0.382 1.049 0.587 1.368 0.116 0.181 0.218 0.324 0.281 0.431 0.060 0.101 0.078 0.158 0.082 0.184 0 0.714 0 1.24 0 1.661 0 0.033-0.013 0.092-0.084 0.187-0.103 0.14-0.328 0.318-0.597 0.468-0.269 0.153-0.579 0.286-0.851 0.382-0.732 0.259-2.121 0.765-3.35 1.749-0.615 0.493-1.192 1.109-1.616 1.879s-0.691 1.692-0.69 2.765c0 0.186 0.008 0.378 0.024 0.573l0.035 0.421h20.812l0.035-0.421c0.016-0.195 0.024-0.386 0.024-0.572 0.001-1.072-0.266-1.994-0.692-2.762zM21.543 23.081h-19.087c-0-0.025-0.003-0.051-0.003-0.075 0.001-0.923 0.223-1.679 0.576-2.322 0.529-0.962 1.371-1.673 2.225-2.188s1.709-0.829 2.241-1.017c0.42-0.149 0.907-0.364 1.322-0.652 0.208-0.145 0.399-0.308 0.552-0.51 0.152-0.199 0.271-0.451 0.271-0.742 0-0.429 0-0.965 0-1.7v-0.024l-0.003-0.024c-0.025-0.23-0.116-0.411-0.208-0.567-0.141-0.235-0.3-0.44-0.445-0.706-0.145-0.265-0.279-0.584-0.359-1.034l-0.046-0.263-0.251-0.090c-0.115-0.041-0.197-0.081-0.266-0.129-0.102-0.072-0.196-0.169-0.316-0.392-0.118-0.221-0.248-0.562-0.39-1.063v-0c-0.061-0.213-0.082-0.375-0.082-0.489 0.004-0.197 0.047-0.243 0.071-0.273 0.025-0.029 0.071-0.051 0.121-0.062l0.399-0.089-0.043-0.407c-0.094-0.893-0.225-2.181-0.225-3.456-0-0.862 0.061-1.717 0.224-2.423 0.135-0.596 0.348-1.070 0.612-1.371 0.424 0.097 0.817 0.132 1.184 0.132 0.648-0.001 1.213-0.088 1.836-0.087h0.015l0.016-0.001c0.233-0.014 0.442-0.021 0.63-0.021 0.598 0 0.971 0.069 1.273 0.185s0.561 0.294 0.911 0.567l0.090 0.070 0.112 0.020c0.41 0.074 0.714 0.22 0.96 0.418 0.366 0.296 0.612 0.734 0.767 1.276 0.155 0.54 0.211 1.174 0.21 1.804 0 0.53-0.039 1.058-0.083 1.529s-0.095 0.884-0.117 1.205h0c-0.004 0.057-0.009 0.106-0.015 0.162l-0.041 0.391 0.381 0.1c0.049 0.013 0.087 0.034 0.111 0.062 0.023 0.030 0.064 0.081 0.067 0.269 0 0.114-0.020 0.275-0.081 0.487l-0 0.001c-0.189 0.668-0.359 1.049-0.503 1.248-0.072 0.1-0.134 0.159-0.204 0.207s-0.151 0.088-0.266 0.129l-0.251 0.090-0.046 0.263c-0.055 0.31-0.121 0.533-0.19 0.708-0.105 0.262-0.217 0.424-0.362 0.638-0.144 0.211-0.317 0.474-0.452 0.852l-0.027 0.075v0.080c0 0.735 0 1.271 0 1.7-0.001 0.281 0.109 0.532 0.256 0.73 0.223 0.299 0.527 0.515 0.856 0.704 0.33 0.187 0.688 0.34 1.025 0.466 0.713 0.265 1.999 0.745 3.086 1.615 0.543 0.434 1.034 0.96 1.388 1.6 0.354 0.641 0.576 1.395 0.577 2.317 0 0.024-0.003 0.050-0.003 0.074z"></path>
</symbol>
<symbol id="icon-city" viewBox="0 0 20 20">
<path d="M6.25 2.427l-4.375 2.188v12.886h16.25v-11.25h-7.5v-1.636l-4.375-2.188zM6.25 3.823l3.125 1.563v10.864h-6.25v-10.864l3.125-1.563zM4.375 6.25v1.25h1.25v-1.25h-1.25zM6.875 6.25v1.25h1.25v-1.25h-1.25zM10.625 7.5h6.25v8.75h-6.25v-8.75zM4.375 8.75v1.25h1.25v-1.25h-1.25zM6.875 8.75v1.25h1.25v-1.25h-1.25zM11.875 8.75v1.25h1.25v-1.25h-1.25zM14.375 8.75v1.25h1.25v-1.25h-1.25zM4.375 11.25v1.25h1.25v-1.25h-1.25zM6.875 11.25v1.25h1.25v-1.25h-1.25zM11.875 11.25v1.25h1.25v-1.25h-1.25zM14.375 11.25v1.25h1.25v-1.25h-1.25zM4.375 13.75v1.25h1.25v-1.25h-1.25zM6.875 13.75v1.25h1.25v-1.25h-1.25zM11.875 13.75v1.25h1.25v-1.25h-1.25zM14.375 13.75v1.25h1.25v-1.25h-1.25z"></path>
</symbol>
<symbol id="icon-spa" viewBox="0 0 24 24">
<path d="M11.616 13.322c0.396-0.042 0.682-0.396 0.64-0.792s-0.396-0.682-0.792-0.64l0.151 1.432zM3.314 5.13l0.72 0.021c0-0.005 0-0.011 0-0.016l-0.72-0.005zM4.033 4.416l-0 0.72 0.008-0-0.008-0.72zM8.199 6.354c0.332 0.218 0.779 0.126 0.997-0.207s0.126-0.779-0.207-0.997l-0.79 1.204zM4.033 3.696c-0.38 0-0.745 0.15-1.014 0.418l1.014 1.022 0-1.44zM3.019 4.114c-0.27 0.268-0.422 0.631-0.425 1.011l1.44 0.010-1.015-1.022zM2.595 5.109c-0.145 4.97 4.245 8.718 9.022 8.213l-0.151-1.432c-3.963 0.419-7.549-2.694-7.431-6.738l-1.439-0.042zM8.99 5.151c-1.472-0.967-3.2-1.474-4.964-1.455l0.016 1.44c1.477-0.016 2.925 0.408 4.158 1.218l0.791-1.204z"></path>
<path d="M13.939 5.242c-0.329 0.224-0.414 0.671-0.19 1s0.671 0.414 1 0.19l-0.81-1.191zM19.010 4.416l-0.004 0.72h0.003l0.001-0.72zM19.727 5.13l-0.72 0.004c0 0.006 0 0.011 0 0.017l0.72-0.020zM17.65 10.567l0.49 0.528c0.011-0.010 0.022-0.021 0.033-0.032l-0.523-0.495zM14.816 12.247v0zM11.724 11.897c-0.396-0.036-0.746 0.257-0.782 0.653s0.257 0.746 0.653 0.782l0.129-1.434zM14.749 6.433c1.255-0.853 2.739-1.306 4.257-1.297l0.008-1.44c-1.809-0.010-3.579 0.529-5.075 1.546l0.81 1.191zM19.009 5.136c-0 0-0.001-0-0.001-0.001l1.016-1.020c-0.269-0.268-0.633-0.419-1.013-0.419l-0.002 1.44zM19.008 5.135c-0-0-0.001-0.001-0.001-0.001l1.44-0.008c-0.002-0.38-0.154-0.743-0.423-1.011l-1.016 1.020zM19.007 5.151c0.026 0.904-0.127 1.803-0.45 2.648l1.345 0.514c0.39-1.021 0.575-2.11 0.544-3.203l-1.439 0.041zM18.558 7.798c-0.323 0.844-0.809 1.617-1.431 2.273l1.045 0.99c0.752-0.794 1.34-1.728 1.73-2.749l-1.345-0.514zM17.16 10.039c-0.738 0.686-1.615 1.206-2.572 1.525l0.455 1.366c1.152-0.384 2.207-1.010 3.096-1.836l-0.98-1.055zM14.588 11.564c-0.922 0.307-1.897 0.421-2.864 0.334l-0.129 1.434c1.164 0.105 2.338-0.032 3.448-0.402l-0.455-1.366z"></path>
<path d="M19.441 14.562c0.007-0.398-0.31-0.725-0.708-0.732s-0.725 0.311-0.732 0.708l1.44 0.024zM5.042 14.538c-0.006-0.398-0.334-0.715-0.732-0.708s-0.715 0.334-0.708 0.732l1.44-0.023zM18.001 14.538c-0.009 0.573-0.503 1.284-1.728 1.892-1.183 0.587-2.86 0.97-4.751 0.97v1.44c2.065 0 3.971-0.415 5.391-1.12 1.377-0.683 2.505-1.757 2.528-3.158l-1.44-0.024zM11.522 17.4c-1.891 0-3.569-0.382-4.752-0.968-1.225-0.607-1.719-1.318-1.728-1.893l-1.44 0.023c0.023 1.403 1.151 2.477 2.528 3.16 1.42 0.704 3.326 1.118 5.391 1.118v-1.44z"></path>
<path d="M22.32 14.517h0.72v-0.007l-0.72 0.007zM0.72 14.52l-0.72-0.007v0.007h0.72zM2.215 12.044c0.223-0.329 0.137-0.777-0.192-1s-0.777-0.137-1 0.192l1.192 0.808zM22.032 11.258c-0.222-0.33-0.669-0.418-0.999-0.197s-0.418 0.669-0.197 0.999l1.196-0.803zM21.6 14.517c0 1.673-1.017 3.275-2.843 4.492-1.821 1.214-4.377 1.988-7.237 1.988v1.44c3.105 0 5.948-0.838 8.036-2.23 2.083-1.389 3.484-3.386 3.484-5.69h-1.44zM11.52 20.997c-2.86 0-5.417-0.773-7.237-1.987-1.826-1.216-2.843-2.818-2.843-4.49h-1.44c0 2.304 1.401 4.301 3.484 5.689 2.088 1.391 4.931 2.228 8.036 2.228v-1.44zM1.44 14.527c0.008-0.886 0.278-1.75 0.775-2.483l-1.192-0.808c-0.656 0.968-1.012 2.108-1.022 3.277l1.44 0.013zM20.837 12.061c0.489 0.729 0.755 1.585 0.763 2.464l1.44-0.014c-0.011-1.159-0.362-2.29-1.008-3.252l-1.196 0.803z"></path>
<path d="M11.541 12.606l-0.453 0.56c0.264 0.214 0.642 0.214 0.906 0l-0.453-0.56zM8.661 6.846l-0.72-0.020c-0 0.015-0 0.031 0 0.046l0.72-0.026zM11.047 1.522l0.494 0.524c0.004-0.003 0.007-0.007 0.010-0.010l-0.504-0.514zM11.541 1.32v0zM12.035 1.522l-0.504 0.514c0.003 0.003 0.007 0.007 0.010 0.010l0.494-0.524zM14.421 6.846l0.72 0.026c0.001-0.015 0.001-0.031 0-0.046l-0.72 0.020zM11.551 2.036c-0.003 0.003-0.006 0.004-0.010 0.004v-1.44c-0.373 0-0.731 0.146-0.998 0.408l1.008 1.028zM11.541 2.040c-0.004 0-0.007-0.001-0.010-0.004l1.008-1.028c-0.266-0.261-0.625-0.408-0.998-0.408v1.44zM9.38 6.865c0.049-1.81 0.842-3.578 2.16-4.82l-0.987-1.048c-1.598 1.504-2.553 3.635-2.613 5.829l1.439 0.039zM11.993 12.046c-1.572-1.272-2.539-3.206-2.613-5.227l-1.439 0.053c0.089 2.437 1.251 4.76 3.147 6.293l0.906-1.12zM13.701 6.819c-0.074 2.021-1.041 3.955-2.613 5.227l0.906 1.12c1.896-1.534 3.057-3.857 3.147-6.293l-1.439-0.053zM11.541 2.046c1.318 1.242 2.11 3.010 2.16 4.82l1.439-0.039c-0.060-2.193-1.015-4.324-2.612-5.829l-0.987 1.048z"></path>
</symbol>
</defs>
</svg>
